<?xml version="1.0" encoding="UTF-8" standalone="no"?>
<svg
   xmlns:dc="http://purl.org/dc/elements/1.1/"
   xmlns:cc="http://creativecommons.org/ns#"
   xmlns:rdf="http://www.w3.org/1999/02/22-rdf-syntax-ns#"
   xmlns:svg="http://www.w3.org/2000/svg"
   xmlns="http://www.w3.org/2000/svg"
   xmlns:sodipodi="http://sodipodi.sourceforge.net/DTD/sodipodi-0.dtd"
   xmlns:inkscape="http://www.inkscape.org/namespaces/inkscape"
   version="1.0"
   width="1280.000000pt"
   height="1266.000000pt"
   viewBox="0 0 1280.000000 1266.000000"
   preserveAspectRatio="xMidYMid meet"
   id="svg16"
   sodipodi:docname="kompass.svg"
   inkscape:version="0.92.3 (2405546, 2018-03-11)"
   inkscape:export-filename="/home/graeb/hpvagnc/Documents/kompass/kompass.png"
   inkscape:export-xdpi="5.6303315"
   inkscape:export-ydpi="5.6303315">
  <defs
     id="defs20" />
  <sodipodi:namedview
     pagecolor="#ffffff"
     bordercolor="#666666"
     borderopacity="1"
     objecttolerance="10"
     gridtolerance="10"
     guidetolerance="10"
     inkscape:pageopacity="0"
     inkscape:pageshadow="2"
     inkscape:window-width="1920"
     inkscape:window-height="1025"
     id="namedview18"
     showgrid="false"
     inkscape:zoom="0.47186019"
     inkscape:cx="853.33333"
     inkscape:cy="844"
     inkscape:window-x="0"
     inkscape:window-y="27"
     inkscape:window-maximized="1"
     inkscape:current-layer="svg16" />
  <metadata
     id="metadata2">
Created by potrace 1.15, written by Peter Selinger 2001-2017
<rdf:RDF>
  <cc:Work
     rdf:about="">
    <dc:format>image/svg+xml</dc:format>
    <dc:type
       rdf:resource="http://purl.org/dc/dcmitype/StillImage" />
  </cc:Work>
</rdf:RDF>
</metadata>
  <path
     style="fill:#ff0000;stroke:none;stroke-width:0.1"
     inkscape:connector-curvature="0"
     id="path4"
     d="m 619,2.5 c 0,1.9 0.5,2.5 2.3,2.5 1.3,0 3.2,0.6 4.3,1.4 1.7,1.3 1.9,2.9 2.2,15.5 0.6,25.1 -2.2,41.9 -7.6,46.1 -1.4,1.2 -2.6,3 -2.7,4 -0.2,1.9 0.6,2 13.7,2 12.7,0 13.8,-0.2 13.8,-1.8 0,-1 -1.3,-2.8 -3,-4 -1.6,-1.3 -3.7,-3.9 -4.5,-5.9 -2.3,-5.5 -3.6,-20.2 -3.3,-36.1 l 0.3,-14.4 23,32.4 c 17,23.9 23.6,32.4 25.3,32.6 l 2.2,0.3 V 55.3 C 685,21.8 687.3,8.7 693.4,5.8 695.1,5.1 696,3.9 696,2.3 696,0 696,0 682.5,0 H 669 v 2.5 c 0,1.4 0.8,2.9 2.1,3.6 4.9,2.6 7.9,17 7.9,37.9 -0.1,12.6 2.5,14.9 -21.5,-19 L 639.8,0 H 629.4 619 Z" />
  <path
     style="fill:#000000;stroke:none;stroke-width:0.1"
     inkscape:connector-curvature="0"
     id="path6"
     d="m 649.3,132.3 c -2.3,11.1 -9,43.1 -14.8,71.2 -5.8,28 -15.3,73.5 -21,101 -5.7,27.5 -16.3,78.3 -23.5,113 -15.5,74.9 -16.7,80.6 -17.2,81 -0.1,0.1 -32.9,-21.1 -72.7,-47.2 -64.7,-42.4 -72.5,-47.3 -73.9,-46 -1.3,1.4 3.5,9.2 46,73.9 26.1,39.8 47.5,72.4 47.4,72.5 -0.1,0.2 -22.6,4.9 -121.1,25.3 -34.6,7.2 -82.3,17.1 -106,22 -23.6,4.9 -60.5,12.6 -82,17 -21.4,4.4 -47.5,9.9 -57.8,12 -10.3,2.2 -19,4 -19.2,4 -0.3,0 -0.5,1.6 -0.5,3.5 0,1.9 0.2,3.5 0.5,3.5 0.3,0 10,2 21.7,4.5 11.7,2.4 38.6,8 59.8,12.4 60,12.4 113.8,23.6 145,30.1 108.9,22.7 154.2,32 155.3,32 5,0.1 4.2,1.4 -43.7,74.5 -42.1,64.1 -47.6,72.9 -46.3,74.2 1.3,1.3 10.1,-4.2 74.2,-46.2 40,-26.2 72.8,-47.5 72.9,-47.3 0.1,0.2 2.6,11.8 5.5,25.8 2.8,14 9.9,48 15.6,75.5 5.7,27.5 14,67.3 18.4,88.5 4.4,21.2 11.6,55.9 16,77.2 4.5,21.4 11.7,56.2 16.1,77.5 4.4,21.4 8.3,39.6 8.6,40.5 0.4,1.2 1.6,1.8 3.8,1.8 h 3.2 l 4.7,-22.3 c 2.5,-12.2 12.8,-61.4 22.7,-109.2 27.3,-131.6 29,-139.7 41.5,-199.4 6.3,-30.5 11.7,-55.6 11.8,-55.8 0.2,-0.2 32.6,20.9 72.1,46.7 39.5,25.9 72.2,47.1 72.8,47.3 0.5,0.1 1.4,-0.5 2,-1.3 0.8,-1.2 -9.2,-17.1 -46.2,-73.4 -25.9,-39.5 -46.8,-72.2 -46.3,-72.6 0.4,-0.4 17.5,-4.1 37.8,-8.3 20.4,-4.2 60.9,-12.6 90,-18.6 29.2,-6.1 81.4,-16.9 116,-24.1 34.7,-7.2 80.7,-16.7 102.3,-21.2 l 39.3,-8.2 -0.3,-3.5 -0.3,-3.4 -25.5,-5.3 c -14,-2.9 -53.8,-11.2 -88.5,-18.4 -75.1,-15.6 -150.4,-31.2 -220,-45.7 -28,-5.8 -51.2,-10.7 -51.3,-10.8 -0.2,-0.2 21.1,-33.1 47.3,-73 42.6,-64.9 47.6,-72.9 46.2,-74.2 -1.3,-1.4 -9.2,3.5 -73.8,45.9 -58.3,38.2 -72.5,47.2 -73.1,45.9 -0.4,-0.9 -3.3,-13.8 -6.3,-28.6 -3.1,-14.9 -10.3,-49.5 -16,-77 -5.7,-27.5 -14,-67.6 -18.5,-89 C 695.5,281 687.2,241 681.5,213.5 675.8,186 668.7,151.9 665.8,137.8 L 660.5,112 h -3.5 -3.5 z m 3.7,256 -0.5,237.7 -40.9,-40.9 -40.9,-40.9 1.2,-4.8 c 0.6,-2.7 5.8,-27.6 11.5,-55.4 9.6,-46.4 18.4,-88.4 47.1,-226.5 5.7,-27.5 12.9,-62.4 16,-77.5 5.7,-27.6 6.4,-30.6 6.8,-29.9 0.1,0.2 0,107.4 -0.3,238.2 z m 156.1,92.2 c -32.8,32.6 -59.6,59.3 -59.7,59.2 -0.1,-0.1 -1.8,-8.3 -3.9,-18.1 -3,-14.6 -3.4,-18.1 -2.3,-18.7 0.7,-0.5 29,-19.1 62.8,-41.3 33.8,-22.3 61.7,-40.5 62,-40.5 0.3,-0.1 -26.2,26.7 -58.9,59.4 z M 560,543 c 0,0.5 -35.3,8.1 -35.6,7.7 -0.1,-0.1 -18.9,-28.8 -41.8,-63.7 l -41.7,-63.5 59.5,59.5 c 32.8,32.7 59.6,59.7 59.6,60 z m 236.5,17.4 c 42.9,8.9 65.6,13.6 198.3,41.1 130.4,27.1 147.7,30.7 148.1,31.1 0.2,0.2 -107.3,0.4 -239,0.4 H 664.5 L 706,591.5 c 26.5,-26.5 42,-41.3 43,-41.1 0.8,0.3 22.2,4.8 47.5,10 z m -189.3,119.9 -41.3,41.3 -39.2,-8.2 C 470.1,701.6 299.4,666.2 216.5,649 c -23.6,-4.9 -43.9,-9.1 -45,-9.3 -1.1,-0.3 105.8,-0.5 237.5,-0.6 L 648.5,639 Z m 126.5,88.9 c -4.7,22.7 -13.3,64 -19.1,91.8 -5.8,27.8 -17.5,84.2 -26.1,125.5 -8.6,41.2 -18.2,87.8 -21.5,103.5 -3.2,15.7 -6.1,29.4 -6.3,30.5 -0.3,1.1 -0.5,-105.3 -0.6,-236.5 l -0.1,-238.5 41.2,41.2 41.1,41.1 z m 95.9,14 c 22.5,34.1 41.3,62.8 41.8,63.7 0.4,0.9 -26.2,-25.4 -59.3,-58.4 -33.1,-33 -59.6,-60.1 -58.9,-60.3 6.8,-1.5 33.6,-7 34.4,-7.1 0.7,-0.1 19.6,27.9 42,62.1 z M 568,751.8 c 1.8,8.9 3.1,16.4 2.9,16.6 -0.5,0.5 -94.9,62.4 -113.4,74.3 l -13,8.5 59.5,-59.6 c 45.9,-46 59.6,-59.2 60.1,-57.8 0.3,0.9 2.1,9 3.9,18 z" />
  <path
     style="fill:#000000;stroke:none;stroke-width:0.1"
     inkscape:connector-curvature="0"
     id="path8"
     d="m 0,599.4 c 0,1.7 0.9,2.9 2.7,3.8 3.9,1.9 6.6,8.1 17.9,41.5 9.6,28.5 10,29.3 12.5,29.3 2.5,0 3.1,-0.9 8.3,-14.3 8.5,-21.2 13,-31.7 13.6,-31.7 0.3,0 3.9,10.4 8,23.1 l 7.4,23 2.9,-0.3 c 2.8,-0.3 3.3,-1.2 15.1,-30.9 12.7,-31.4 15.9,-37.8 20.1,-39.7 1.7,-0.8 2.5,-2 2.5,-3.7 v -2.6 l -13.7,0.3 -13.8,0.3 v 2.5 c 0,2 0.6,2.6 3,2.8 4.9,0.6 5.8,2 5.2,8.2 -0.4,4.5 -9.6,32.3 -13.8,42 -1,2.2 -2.1,-0.3 -9.5,-23 -6.4,-19.4 -8.2,-25.9 -7.4,-27.2 0.5,-1 1,-2.7 1,-3.8 0,-1.9 -0.6,-2 -11,-2 H 40 v 2.8 c 0,2.3 0.6,3 3.2,3.7 7.8,2.3 7.7,12.8 -0.3,35.9 -4.8,13.9 -6.9,18.2 -6.9,14.3 0,-0.6 -3.6,-12.2 -8,-25.7 -5.1,-15.7 -7.6,-24.8 -7,-25.4 0.6,-0.6 1,-2 1,-3.3 C 22,597 21.8,597 11,597 H 0 Z" />
  <path
     style="fill:#000000;stroke:none;stroke-width:0.1"
     inkscape:connector-curvature="0"
     id="path10"
     d="m 1235.2,598.1 c -11.4,2.2 -23.8,12.6 -29.5,24.6 -2.9,6.3 -3.2,7.6 -3.2,16.8 0.1,8.4 0.4,10.8 2.4,14.7 3.6,7.4 9.5,13.4 16.6,16.9 5.5,2.7 7.5,3.1 14.7,3.2 18.6,0.2 34.2,-10.2 41,-27.3 3.4,-8.4 3.2,-21.6 -0.4,-29.2 -7.3,-15.6 -23.5,-23.3 -41.6,-19.7 z m 14.8,10.5 c 6.4,3.5 12,10.2 15.1,18.1 3.2,8.2 3.3,22 0.2,27.9 -6.1,11.5 -19.5,15.8 -31.8,10 -12.2,-5.6 -20.5,-21.7 -19.3,-37.1 0.7,-7.5 3.5,-13.2 8.9,-17.8 4.9,-4.2 6.3,-4.6 15,-4.3 5,0.2 7.9,1 11.9,3.2 z" />
  <path
     style="fill:#000000;stroke:none;stroke-width:0.1"
     inkscape:connector-curvature="0"
     id="path12"
     d="m 656.9,1189.1 c -11.9,1.8 -20.9,10.5 -20.9,20.2 0,8.3 2.1,10.8 18.6,22.5 10.4,7.3 13.4,11 13.4,16.7 0,8.6 -10,14.2 -18,10 -4.2,-2.2 -7.8,-7.4 -9.1,-13.3 -1,-4.8 -1.3,-5.2 -4,-5.2 h -3 l 0.3,11.2 0.3,11.1 4,1.5 c 2.3,0.9 7.6,1.5 12.5,1.6 7.1,0.1 9.2,-0.3 13,-2.3 9.4,-4.9 15,-12.6 15,-20.6 0,-7.8 -2.2,-10.7 -16.1,-20.5 -12.5,-8.9 -15.9,-12.8 -15.9,-18.1 0,-11.4 16,-12.3 20.6,-1.3 0.8,1.9 1.4,4.5 1.4,5.9 0,2.2 0.4,2.5 3.5,2.5 h 3.5 v -9.8 -9.9 l -5.7,-1.2 c -8.1,-1.8 -8.3,-1.8 -13.4,-1 z" />
  <ellipse
     style="fill:#999999;fill-opacity:0.22941177;stroke:#e60000;stroke-width:2.80769205;stroke-miterlimit:4;stroke-dasharray:none;stroke-opacity:1"
     id="path824"
     cx="640.18646"
     cy="632.96613"
     rx="638.78259"
     ry="631.63007" />
</svg>
